# xmcd CD database file
#
# Track frame offsets:
#	150
#	20635
#	41112
#	61592
#	83337
#
# Disc length: 1399 seconds
#
# Revision: 0
# Processed by: cddbd v1.5.1PL0 Copyright (c) Steve Scherf et al.
# Submitted via: CDex 1.51
#
DISCID=30057505
DTITLE=川中美幸 - 貴船の宿
DYEAR=2002
DGENRE=Vocal
TTITLE0=貴船の宿（歌入り）
TTITLE1=貴船の宿（オリジナル・カラオケ）
TTITLE2=貴船の宿（一般用メロ入りカラオケ）
TTITLE3=祭りうた（歌入り）
TTITLE4=祭りうた（オリジナル・カラオケ）
EXTD=YEAR: 2002
EXTT0=
EXTT1=
EXTT2=
EXTT3=
EXTT4=
PLAYORDER=
